# xmcd
#
# Track frame offsets:
# 150
# 16552
# 30090
# 45385
# 60242
# 76487
# 92785
# 105225
# 118187
# 130947
# 145582
# 158505
# 171972
# 183000
#
# Disc length: 2589 seconds
#
#
# Revision: 0
# Processed by: cddbd v1.5.1PL0 Copyright (c) Steve Scherf et al.
# Submitted via: FreeRIP 2.53 
#
DISCID=930a1b0e
DTITLE=Janie Frickie - The Very Best Of Janie Frickie
DYEAR=1991
DGENRE=Country
TTITLE0=It Ain't Easy Bein' Easy
TTITLE1=He's A Heartache (Looking For A Place To Happen)
TTITLE2=You Don't Know Love
TTITLE3=Let's Stop Talkin' About It
TTITLE4=The First Word In Memory Is Me
TTITLE5=Tell Me A Lie
TTITLE6=She's Single Again
TTITLE7=Your Heart's Not In It
TTITLE8=If The Fall Don't Get You
TTITLE9=Ridin' High (With Merle Haggard)
TTITLE10=Do Me With Love
TTITLE11=Homeward Bound
TTITLE12=Don't Worry 'Bout Me Baby
TTITLE13=If You Could See Me Now
EXTD=
EXTT0=
EXTT1=
EXTT2=
EXTT3=
EXTT4=
EXTT5=
EXTT6=
EXTT7=
EXTT8=
EXTT9=
EXTT10=
EXTT11=
EXTT12=
EXTT13=
PLAYORDER=
